<svg width="474" height="307" viewBox="0 0 474 307" fill="none" xmlns="http://www.w3.org/2000/svg">
<g clip-path="url(#clip0_708_378)">
<path d="M77.0035 142.957C83.9423 142.957 89.5673 137.331 89.5673 130.391C89.5673 123.452 83.9423 117.826 77.0035 117.826C70.0647 117.826 64.4396 123.452 64.4396 130.391C64.4396 137.331 70.0647 142.957 77.0035 142.957Z" fill="#FFB8B8"/>
<path d="M34.5507 280.966L37.7319 286.372L60.0921 276.672L55.3968 268.694L34.5507 280.966Z" fill="#FFB8B8"/>
<path d="M35.5039 278.549L41.7688 289.193C42.2931 290.084 42.6371 291.07 42.7806 292.094C42.9241 293.118 42.8646 294.16 42.6055 295.16C42.3463 296.161 41.8926 297.101 41.2703 297.926C40.648 298.751 39.8692 299.446 38.9784 299.97L38.758 300.1L28.5005 282.672L35.5039 278.549Z" fill="#2F2E41"/>
<path d="M71.4104 300.439L77.6818 300.438L80.6651 276.246L71.4094 276.247L71.4104 300.439Z" fill="#FFB8B8"/>
<path d="M69.8108 298.391L82.1612 298.39C83.1948 298.39 84.2188 298.594 85.1738 298.99C86.1287 299.385 86.9963 299.965 87.7272 300.696C88.4581 301.427 89.0378 302.295 89.4334 303.25C89.8289 304.205 90.0325 305.228 90.0325 306.262V306.518L69.8112 306.519L69.8108 298.391Z" fill="#2F2E41"/>
<path d="M46.1975 285.781C45.8366 285.782 45.4807 285.697 45.1587 285.534C44.8366 285.371 44.5574 285.135 44.3437 284.844L38.2955 276.628C38.111 276.378 37.9792 276.092 37.9081 275.789C37.837 275.486 37.828 275.172 37.8818 274.866C37.9356 274.559 38.0509 274.267 38.2209 274.006C38.3909 273.745 38.6119 273.522 38.8707 273.349L65.7846 255.371L49.5451 212.665L84.2729 215.532L85.4425 252.23C85.5523 255.572 84.7513 258.881 83.1254 261.803C81.4994 264.725 79.1096 267.15 76.2118 268.818L47.3476 285.472C46.9982 285.675 46.6014 285.781 46.1975 285.781Z" fill="#2F2E41"/>
<path d="M71.5997 295.527C71.0041 295.526 70.4322 295.294 70.004 294.88C69.5758 294.466 69.3247 293.902 69.3036 293.307L68.0309 257.556L83.7904 256.726L82.5356 292.733C82.5171 293.304 82.2868 293.847 81.8896 294.257C81.4924 294.667 80.9568 294.914 80.3873 294.95L71.7562 295.522C71.7039 295.526 71.6517 295.527 71.5997 295.527Z" fill="#2F2E41"/>
<path d="M88.2919 222.631C84.2823 222.631 70.2774 218.121 65.4155 216.513C64.6881 217.095 60.6924 220.083 56.0282 219.537C53.1503 219.199 50.6168 217.57 48.4979 214.694C43.8189 208.343 49.5981 181.108 55.2702 159.378C56.4073 154.985 59.2028 151.205 63.069 148.831C66.9352 146.458 71.5711 145.676 76.002 146.649C79.2134 147.358 82.1635 148.949 84.5209 151.242C86.8783 153.536 88.5495 156.441 89.3467 159.633C90.4146 163.98 89.496 169.094 88.8252 172.829C88.5098 174.584 88.2607 175.971 88.3459 176.653C88.6751 179.286 90.5039 220.594 89.328 222.358C89.2027 222.546 88.8406 222.631 88.2919 222.631Z" fill="#FD2A2A"/>
<path d="M73.6237 222.704C74.2681 222.224 74.7995 221.609 75.1804 220.902C75.5614 220.194 75.7826 219.412 75.8285 218.61C75.8744 217.808 75.7439 217.005 75.4462 216.259C75.1485 215.513 74.6908 214.841 74.1053 214.291L74.3536 164.235L62.5654 166.198L66.0281 214.784C65.1691 215.829 64.7232 217.153 64.7748 218.504C64.8265 219.856 65.3721 221.142 66.3084 222.118C67.2446 223.095 68.5064 223.693 69.8547 223.801C71.203 223.909 72.544 223.519 73.6237 222.704Z" fill="#FFB8B8"/>
<path d="M76.3502 196.381H63.6529C63.0466 196.379 62.4653 196.139 62.0346 195.712C61.6039 195.285 61.3583 194.706 61.351 194.1L61.0393 159.674C61.0285 158.483 61.2538 157.302 61.7022 156.2C62.1505 155.097 62.813 154.094 63.6514 153.249C64.4897 152.404 65.4873 151.733 66.5864 151.276C67.6854 150.819 68.8642 150.585 70.0545 150.586C71.2448 150.588 72.423 150.825 73.5209 151.285C74.6189 151.745 75.6148 152.418 76.4511 153.265C77.2874 154.112 77.9474 155.116 78.3931 156.22C78.8387 157.324 79.0612 158.505 79.0475 159.696L78.6519 194.105C78.6429 194.711 78.3967 195.288 77.9662 195.714C77.5358 196.139 76.9555 196.379 76.3502 196.381Z" fill="#FD2A2A"/>
<path d="M73.8044 142.904C68.052 142.915 62.6252 138.367 61.6284 132.701C61.2715 130.475 61.4324 128.197 62.0986 126.044C62.822 123.592 64.0625 121.324 65.7365 119.392C67.4105 117.461 69.4791 115.911 71.8029 114.846C74.1266 113.782 76.6516 113.228 79.2074 113.222C81.7633 113.217 84.2907 113.759 86.6193 114.813C88.1581 115.509 89.6739 116.509 90.3785 118.045C91.0831 119.58 90.6421 121.726 89.1007 122.417C88.0934 122.868 86.8294 122.646 85.9358 123.294C84.6522 124.225 84.9826 126.206 85.5557 127.684C86.1289 129.163 86.7772 130.952 85.8164 132.213C84.9211 133.389 83.1314 133.352 81.7218 132.91C80.3122 132.467 78.9209 131.726 77.4512 131.877C75.3077 132.097 73.7673 134.229 73.4822 136.365C73.197 138.501 73.8682 140.637 74.5309 142.687L73.8044 142.904Z" fill="#2F2E41"/>
<path d="M132.488 307H0.511536C0.375868 307 0.245756 306.946 0.149825 306.85C0.0538934 306.754 0 306.624 0 306.488C0 306.353 0.0538934 306.223 0.149825 306.127C0.245756 306.031 0.375868 305.977 0.511536 305.977H132.488C132.623 305.977 132.754 306.031 132.849 306.127C132.945 306.223 132.999 306.353 132.999 306.488C132.999 306.624 132.945 306.754 132.849 306.85C132.754 306.946 132.623 307 132.488 307Z" fill="#CCCCCC"/>
<path d="M465.56 222.312H137.748C135.51 222.31 133.365 221.419 131.782 219.837C130.2 218.254 129.31 216.109 129.308 213.871V11.7125C129.309 10.0729 129.961 8.50095 131.121 7.34157C132.28 6.18218 133.852 5.53 135.491 5.52811H467.71C469.377 5.53 470.976 6.19345 472.156 7.37288C473.335 8.55231 473.998 10.1514 474 11.8194V213.871C473.997 216.109 473.107 218.254 471.525 219.837C469.943 221.419 467.797 222.31 465.56 222.312Z" fill="#F2F2F2"/>
<path d="M454.961 211.654H149.449C144.97 211.654 141.327 208.242 141.327 204.048V28.0059C141.327 24.8953 144.027 22.3646 147.345 22.3646H456.964C460.338 22.3646 463.083 24.9371 463.083 28.0988V204.048C463.083 208.242 459.439 211.654 454.961 211.654Z" fill="white"/>
<path d="M473.882 12.7644H129.189V8.46678C129.192 6.22134 130.086 4.06888 131.674 2.4816C133.262 0.894325 135.415 0.00186188 137.66 0H465.411C467.657 0.00184295 469.809 0.894299 471.397 2.48158C472.986 4.06886 473.879 6.22133 473.882 8.46678V12.7644Z" fill="#3F3D56"/>
<path d="M144.584 8.5863C145.794 8.5863 146.775 7.60519 146.775 6.39493C146.775 5.18466 145.794 4.20355 144.584 4.20355C143.374 4.20355 142.393 5.18466 142.393 6.39493C142.393 7.60519 143.374 8.5863 144.584 8.5863Z" fill="white"/>
<path d="M152.901 8.5863C154.111 8.5863 155.092 7.60519 155.092 6.39493C155.092 5.18466 154.111 4.20355 152.901 4.20355C151.691 4.20355 150.71 5.18466 150.71 6.39493C150.71 7.60519 151.691 8.5863 152.901 8.5863Z" fill="white"/>
<path d="M161.218 8.5863C162.428 8.5863 163.409 7.60519 163.409 6.39493C163.409 5.18466 162.428 4.20355 161.218 4.20355C160.008 4.20355 159.027 5.18466 159.027 6.39493C159.027 7.60519 160.008 8.5863 161.218 8.5863Z" fill="white"/>
<path d="M294.957 60.8564H235.205C234.314 60.8564 233.46 60.5025 232.83 59.8725C232.2 59.2426 231.846 58.3881 231.846 57.4972C231.846 56.6063 232.2 55.7519 232.83 55.1219C233.46 54.492 234.314 54.138 235.205 54.138H294.957C295.848 54.138 296.702 54.492 297.332 55.1219C297.962 55.7519 298.316 56.6063 298.316 57.4972C298.316 58.3881 297.962 59.2426 297.332 59.8725C296.702 60.5025 295.848 60.8564 294.957 60.8564Z" fill="#CCCCCC"/>
<path d="M369.204 60.8564H309.453C308.562 60.8564 307.708 60.5025 307.078 59.8725C306.448 59.2426 306.094 58.3881 306.094 57.4972C306.094 56.6063 306.448 55.7519 307.078 55.1219C307.708 54.492 308.562 54.138 309.453 54.138H369.204C370.095 54.138 370.949 54.492 371.579 55.1219C372.209 55.7519 372.563 56.6063 372.563 57.4972C372.563 58.3881 372.209 59.2426 371.579 59.8725C370.949 60.5025 370.095 60.8564 369.204 60.8564Z" fill="#CCCCCC"/>
<path d="M369.204 73.586H265.258C264.367 73.586 263.513 73.2321 262.883 72.6021C262.253 71.9721 261.899 71.1177 261.899 70.2268C261.899 69.3359 262.253 68.4815 262.883 67.8515C263.513 67.2215 264.367 66.8676 265.258 66.8676H369.204C370.095 66.8676 370.949 67.2215 371.579 67.8515C372.209 68.4815 372.563 69.3359 372.563 70.2268C372.563 71.1177 372.209 71.9721 371.579 72.6021C370.949 73.2321 370.095 73.586 369.204 73.586Z" fill="#CCCCCC"/>
<path d="M294.957 47.95H235.205C234.315 47.9489 233.462 47.5945 232.833 46.9647C232.204 46.3348 231.851 45.481 231.851 44.5908C231.851 43.7006 232.204 42.8468 232.833 42.217C233.462 41.5871 234.315 41.2327 235.205 41.2316H294.957C295.398 41.2311 295.835 41.3176 296.243 41.4861C296.651 41.6547 297.022 41.9021 297.335 42.214C297.647 42.526 297.895 42.8965 298.064 43.3044C298.233 43.7122 298.32 44.1493 298.32 44.5908C298.32 45.0323 298.233 45.4695 298.064 45.8773C297.895 46.2851 297.647 46.6556 297.335 46.9676C297.022 47.2796 296.651 47.5269 296.243 47.6955C295.835 47.8641 295.398 47.9506 294.957 47.95Z" fill="#CCCCCC"/>
<path d="M327.838 48.1268H310.867C309.976 48.1268 309.122 47.7729 308.492 47.1429C307.862 46.513 307.508 45.6585 307.508 44.7676C307.508 43.8767 307.862 43.0223 308.492 42.3923C309.122 41.7623 309.976 41.4084 310.867 41.4084H327.838C328.729 41.4084 329.583 41.7623 330.213 42.3923C330.843 43.0223 331.197 43.8767 331.197 44.7676C331.197 45.6585 330.843 46.513 330.213 47.1429C329.583 47.7729 328.729 48.1268 327.838 48.1268Z" fill="#CCCCCC"/>
<path d="M252.176 73.586H235.205C234.315 73.5849 233.462 73.2305 232.833 72.6007C232.204 71.9708 231.851 71.117 231.851 70.2268C231.851 69.3366 232.204 68.4828 232.833 67.853C233.462 67.2231 234.315 66.8687 235.205 66.8676H252.176C252.618 66.8671 253.055 66.9536 253.463 67.1221C253.871 67.2907 254.242 67.538 254.554 67.85C254.866 68.162 255.114 68.5325 255.283 68.9403C255.452 69.3482 255.539 69.7853 255.539 70.2268C255.539 70.6683 255.452 71.1054 255.283 71.5133C255.114 71.9211 254.866 72.2916 254.554 72.6036C254.242 72.9156 253.871 73.1629 253.463 73.3315C253.055 73.5001 252.618 73.5866 252.176 73.586Z" fill="#CCCCCC"/>
<path d="M294.957 180.058H235.205C234.314 180.058 233.46 179.704 232.83 179.074C232.2 178.444 231.846 177.59 231.846 176.699C231.846 175.808 232.2 174.953 232.83 174.323C233.46 173.693 234.314 173.339 235.205 173.339H294.957C295.398 173.339 295.835 173.426 296.242 173.595C296.65 173.764 297.02 174.011 297.332 174.323C297.644 174.635 297.891 175.006 298.06 175.413C298.229 175.821 298.316 176.258 298.316 176.699C298.316 177.14 298.229 177.577 298.06 177.984C297.891 178.392 297.644 178.762 297.332 179.074C297.02 179.386 296.65 179.633 296.242 179.802C295.835 179.971 295.398 180.058 294.957 180.058Z" fill="#CCCCCC"/>
<path d="M369.204 180.058H309.453C308.562 180.058 307.708 179.704 307.078 179.074C306.448 178.444 306.094 177.59 306.094 176.699C306.094 175.808 306.448 174.953 307.078 174.323C307.708 173.693 308.562 173.339 309.453 173.339H369.204C369.645 173.339 370.082 173.426 370.49 173.595C370.897 173.764 371.267 174.011 371.579 174.323C371.891 174.635 372.139 175.006 372.307 175.413C372.476 175.821 372.563 176.258 372.563 176.699C372.563 177.14 372.476 177.577 372.307 177.984C372.139 178.392 371.891 178.762 371.579 179.074C371.267 179.386 370.897 179.633 370.49 179.802C370.082 179.971 369.645 180.058 369.204 180.058Z" fill="#CCCCCC"/>
<path d="M369.204 192.787H265.258C264.367 192.787 263.513 192.434 262.883 191.804C262.253 191.174 261.899 190.319 261.899 189.428C261.899 188.537 262.253 187.683 262.883 187.053C263.513 186.423 264.367 186.069 265.258 186.069H369.204C369.646 186.069 370.083 186.155 370.491 186.324C370.899 186.492 371.27 186.739 371.582 187.051C371.894 187.363 372.142 187.734 372.311 188.142C372.48 188.55 372.567 188.987 372.567 189.428C372.567 189.87 372.48 190.307 372.311 190.715C372.142 191.123 371.894 191.493 371.582 191.805C371.27 192.117 370.899 192.364 370.491 192.533C370.083 192.702 369.646 192.788 369.204 192.787Z" fill="#CCCCCC"/>
<path d="M294.957 167.151H235.205C234.314 167.151 233.46 166.798 232.83 166.168C232.2 165.538 231.846 164.683 231.846 163.792C231.846 162.901 232.2 162.047 232.83 161.417C233.46 160.787 234.314 160.433 235.205 160.433H294.957C295.848 160.433 296.702 160.787 297.332 161.417C297.962 162.047 298.316 162.901 298.316 163.792C298.316 164.683 297.962 165.538 297.332 166.168C296.702 166.798 295.848 167.151 294.957 167.151Z" fill="#CCCCCC"/>
<path d="M327.838 167.328H310.867C309.976 167.328 309.122 166.974 308.492 166.344C307.862 165.714 307.508 164.86 307.508 163.969C307.508 163.078 307.862 162.224 308.492 161.594C309.122 160.964 309.976 160.61 310.867 160.61H327.838C328.729 160.61 329.583 160.964 330.213 161.594C330.843 162.224 331.197 163.078 331.197 163.969C331.197 164.86 330.843 165.714 330.213 166.344C329.583 166.974 328.729 167.328 327.838 167.328Z" fill="#CCCCCC"/>
<path d="M252.176 192.787H235.205C234.314 192.787 233.46 192.434 232.83 191.804C232.2 191.174 231.846 190.319 231.846 189.428C231.846 188.537 232.2 187.683 232.83 187.053C233.46 186.423 234.314 186.069 235.205 186.069H252.176C252.618 186.069 253.055 186.155 253.463 186.324C253.871 186.492 254.242 186.739 254.554 187.051C254.866 187.363 255.114 187.734 255.283 188.142C255.452 188.55 255.539 188.987 255.539 189.428C255.539 189.87 255.452 190.307 255.283 190.715C255.114 191.123 254.866 191.493 254.554 191.805C254.242 192.117 253.871 192.364 253.463 192.533C253.055 192.702 252.618 192.788 252.176 192.787Z" fill="#CCCCCC"/>
<path d="M279.352 143.994C278.084 143.997 276.866 143.499 275.963 142.608L253.503 120.425C253.062 119.99 252.712 119.471 252.473 118.899C252.234 118.327 252.111 117.714 252.111 117.094C252.111 116.474 252.234 115.861 252.473 115.289C252.712 114.717 253.062 114.198 253.503 113.763L275.873 91.6698C276.805 90.7539 278.06 90.2425 279.367 90.2466C280.673 90.2507 281.926 90.77 282.852 91.6918C283.779 92.6211 284.299 93.8801 284.299 95.1928C284.3 96.5055 283.779 97.7646 282.852 98.6938L266.229 115.319C265.711 115.838 265.42 116.542 265.42 117.275C265.42 118.008 265.711 118.712 266.229 119.231L282.762 135.766C283.437 136.44 283.897 137.299 284.083 138.234C284.27 139.17 284.174 140.14 283.809 141.021C283.444 141.902 282.825 142.655 282.032 143.184C281.238 143.714 280.305 143.996 279.352 143.994Z" fill="#FD2A2A"/>
<path d="M315.141 143.994C314.188 143.996 313.255 143.714 312.461 143.184C311.668 142.655 311.049 141.902 310.684 141.021C310.319 140.14 310.223 139.17 310.41 138.234C310.596 137.299 311.056 136.44 311.731 135.766L328.264 119.231C328.782 118.712 329.073 118.008 329.073 117.275C329.073 116.542 328.782 115.838 328.264 115.319L311.641 98.6938C311.181 98.2341 310.817 97.6882 310.568 97.0875C310.319 96.4868 310.191 95.843 310.191 95.1928C310.191 94.5426 310.319 93.8987 310.568 93.298C310.817 92.6973 311.181 92.1515 311.641 91.6918C312.567 90.77 313.82 90.2507 315.126 90.2466C316.433 90.2424 317.688 90.7539 318.62 91.6698L340.99 113.763C341.431 114.198 341.781 114.717 342.02 115.289C342.259 115.861 342.382 116.474 342.382 117.094C342.382 117.714 342.259 118.327 342.02 118.899C341.781 119.471 341.431 119.99 340.99 120.425L318.53 142.608C317.627 143.499 316.409 143.997 315.141 143.994Z" fill="#FD2A2A"/>
</g>
<defs>
<clipPath id="clip0_708_378">
<rect width="474" height="307" fill="white"/>
</clipPath>
</defs>
</svg>
